<svg xmlns="http://www.w3.org/2000/svg" viewBox="0 0 655 141" width="655" height="141" role="img" aria-label="moxxy">
  <title>moxxy</title>
  <defs>
    <mask id="moxxy-lk-weave" maskUnits="userSpaceOnUse" x="0" y="0" width="256" height="256">
      <rect width="256" height="256" fill="#000"/>
      <circle cx="188" cy="153" r="27" fill="#fff"/>
      <circle cx="103" cy="188" r="27" fill="#fff"/>
      <circle cx="68" cy="103" r="27" fill="#fff"/>
      <circle cx="153" cy="68" r="27" fill="#fff"/>
    </mask>
    <mask id="moxxy-lk-xweave" maskUnits="userSpaceOnUse" x="-40" y="-40" width="600" height="240">
      <rect x="-40" y="-40" width="600" height="240" fill="#fff"/>
      <rect x="-23" y="-16" width="46" height="32" fill="#000" transform="translate(247 77) rotate(45)"/>
      <rect x="-23" y="-16" width="46" height="32" fill="#000" transform="translate(348 77) rotate(45)"/>
    </mask>
  </defs>
  <g transform="translate(-23.06 -23.06) scale(0.6216)">
    <g fill="none" stroke-width="22" stroke-linejoin="round">
      <rect x="68" y="68" width="120" height="120" rx="12" stroke="#FFFFFF"/>
      <rect x="68" y="68" width="120" height="120" rx="12" stroke="#FF4A1E" transform="rotate(45 128 128)"/>
      <g mask="url(#moxxy-lk-weave)">
        <rect x="68" y="68" width="120" height="120" rx="12" stroke="#FFFFFF"/>
      </g>
    </g>
  </g>
  <g transform="translate(153 12.5)">
    <g transform="translate(9 -33)" fill="none" stroke="#FFFFFF" stroke-width="18" stroke-linecap="round" stroke-linejoin="round">
      <path d="M0 112 V62 A20 20 0 0 1 40 62 V112 M40 62 A20 20 0 0 1 80 62 V112"/>
      <path d="M111 77 a35 35 0 1 0 70 0 a35 35 0 1 0 -70 0"/>
      <g mask="url(#moxxy-lk-xweave)">
        <path d="M282 42 L212 112 M383 42 L313 112"/>
      </g>
      <path d="M212 42 L282 112 M313 42 L383 112"/>
      <path d="M414 42 L449 112 M484 42 L429 152"/>
    </g>
  </g>
</svg>
